<svg width="423" height="86" viewBox="0 0 423 86" fill="none" xmlns="http://www.w3.org/2000/svg">
<path d="M36.576 21.872C27.432 21.872 20.088 24.392 15.48 29.144V22.592H3.096V83H15.48V58.448C20.088 63.272 27.432 65.72 36.576 65.72C50.256 65.72 61.848 60.032 61.848 43.832C61.848 27.632 50.256 21.872 36.576 21.872ZM32.472 55.424C21.456 55.424 15.48 52.184 15.48 43.832C15.48 35.408 21.456 32.168 32.472 32.168C43.488 32.168 49.536 35.408 49.536 43.832C49.536 52.184 43.488 55.424 32.472 55.424ZM100.574 21.872C92.6539 21.872 85.1659 24.104 78.8299 29.792V22.592H66.5179V65H78.8299V39.584C86.3179 33.752 94.2379 32.168 101.15 32.168C104.75 32.168 107.99 32.6 112.022 33.608V23.312C109.142 22.592 105.614 21.872 100.574 21.872ZM142.565 65.72C160.061 65.72 171.941 59.384 171.941 43.832C171.941 28.208 160.061 21.872 142.565 21.872C124.997 21.872 113.188 28.208 113.188 43.832C113.188 59.384 124.997 65.72 142.565 65.72ZM142.565 55.424C131.117 55.424 125.501 52.616 125.501 43.832C125.501 34.976 131.117 32.168 142.565 32.168C153.941 32.168 159.557 34.976 159.557 43.832C159.557 52.616 153.941 55.424 142.565 55.424ZM176.628 7.4V18.128H189.012V7.4H176.628ZM189.012 22.592H176.628V62.408C176.628 71.336 175.044 72.704 167.556 72.704C164.388 72.704 162.228 72.416 158.7 71.984V81.92C162.804 82.64 167.196 83 171.444 83C185.124 83 189.012 76.016 189.012 63.056V22.592ZM222.282 55.712C214.074 55.712 207.594 53.48 206.226 46.712H252.018C252.018 27.416 239.13 21.872 223.002 21.872C205.794 21.872 193.626 28.208 193.626 43.832C193.626 59.384 206.154 65.72 222.282 65.72C237.978 65.72 248.49 60.608 251.298 49.808H239.058C235.962 54.128 230.778 55.712 222.282 55.712ZM222.93 31.232C230.706 31.232 236.754 32.888 238.842 38.864H206.658C208.602 32.888 214.506 31.232 222.93 31.232ZM255.571 43.832C255.571 59.384 267.379 65.72 284.947 65.72C300.787 65.72 311.947 60.536 313.963 48.08H301.363C299.707 53.552 293.875 55.424 284.947 55.424C274.363 55.424 267.883 52.616 267.883 43.832C267.883 34.976 274.363 32.168 284.947 32.168C293.875 32.168 299.707 34.04 301.363 39.512H313.963C311.947 27.056 300.787 21.872 284.947 21.872C267.379 21.872 255.571 28.208 255.571 43.832ZM358.477 32.888V22.592H338.389V10.28L326.005 13.808V22.592H314.845V32.888H326.005V52.256C326.005 61.616 333.061 65.72 344.005 65.72C349.693 65.72 354.373 65.36 358.477 64.64V54.704C353.509 55.424 351.349 55.424 347.461 55.424C339.973 55.424 338.389 53.336 338.389 45.128V32.888H358.477ZM390.908 65.72C408.404 65.72 420.284 59.384 420.284 43.832C420.284 28.208 408.404 21.872 390.908 21.872C373.34 21.872 361.532 28.208 361.532 43.832C361.532 59.384 373.34 65.72 390.908 65.72ZM390.908 55.424C379.46 55.424 373.844 52.616 373.844 43.832C373.844 34.976 379.46 32.168 390.908 32.168C402.284 32.168 407.9 34.976 407.9 43.832C407.9 52.616 402.284 55.424 390.908 55.424Z" fill="#089EE7"/>
</svg>
